<svg xmlns="http://www.w3.org/2000/svg" viewBox="0 0 200 200">
  <path d="M 25 65 L 130 50 C 140 48 145 52 145 60 L 145 80" fill="none" stroke="#000000" stroke-width="10" stroke-linecap="round" stroke-linejoin="round"/>
  
  <path d="M 20 160 L 150 160 C 160 160 165 155 165 145 L 165 95 C 165 85 160 80 150 80 L 20 80 C 10 80 5 85 5 95 L 5 145 C 5 155 10 160 20 160 Z" fill="none" stroke="#000000" stroke-width="10" stroke-linejoin="round"/>
  
  <path d="M 165 110 L 175 110 C 180 110 185 115 185 120 L 185 130 C 185 135 180 140 175 140 L 165 140" fill="none" stroke="#000000" stroke-width="10" stroke-linecap="round" stroke-linejoin="round"/>
  <circle cx="173" cy="125" r="5" fill="#000000"/>
  
  <rect x="35" y="125" width="18" height="35" fill="#000000"/>
  <rect x="65" y="105" width="18" height="55" fill="#000000"/>
  <rect x="95" y="90" width="18" height="70" fill="#000000"/>
  <rect x="125" y="115" width="18" height="45" fill="#000000"/>
  
  <path d="M 10 145 L 60 95 L 90 120 L 155 45" fill="none" stroke="#000000" stroke-width="12" stroke-linecap="round" stroke-linejoin="round"/>
  
  <polygon points="130,40 165,28 165,65" fill="#000000"/>
  
  <polygon points="175,20 178,12 181,20 189,23 181,26 178,34 175,26 167,23" fill="#000000"/>
  <polygon points="155,10 157,5 159,10 164,12 159,14 157,19 155,14 150,12" fill="#000000"/>
</svg>
